<svg width="58" height="48" viewBox="0 0 58 48" fill="none" xmlns="http://www.w3.org/2000/svg">
<rect width="58" height="48" rx="11" fill="#523116"/>
<path d="M15.7244 39.0316L17.9155 40.8569C18.4311 41.2863 18.6785 41.7874 18.6579 42.36C18.6373 42.9327 18.3898 43.4337 17.9155 43.8632C17.4 44.2927 16.7882 44.5167 16.0802 44.5353C15.3721 44.5539 14.7595 44.3478 14.2422 43.9169L7.60442 38.3874C7.34664 38.1727 7.16362 37.94 7.05535 37.6895C6.94709 37.439 6.89467 37.1705 6.89811 36.8842C6.90154 36.5979 6.95568 36.3295 7.06051 36.079C7.16534 35.8284 7.3475 35.5958 7.607 35.3811L14.2448 29.8516C14.7603 29.4221 15.373 29.2167 16.0827 29.2353C16.7925 29.2539 17.4043 29.4772 17.9181 29.9053C18.3907 30.3348 18.6382 30.8358 18.6605 31.4084C18.6828 31.9811 18.4354 32.4821 17.9181 32.9116L15.727 34.7369H41.8889V28.2948C41.8889 27.6863 42.1363 27.1767 42.6313 26.7658C43.1262 26.355 43.738 26.1488 44.4666 26.1474C45.1953 26.146 45.8079 26.3521 46.3046 26.7658C46.8012 27.1796 47.0478 27.6892 47.0444 28.2948V34.7369C47.0444 35.9179 46.54 36.9293 45.5313 37.7711C44.5225 38.6129 43.3084 39.033 41.8889 39.0316H15.7244ZM42.2755 13.2632H16.1111V19.7053C16.1111 20.3137 15.8636 20.8241 15.3687 21.2364C14.8738 21.6486 14.262 21.8541 13.5333 21.8526C12.8047 21.8512 12.1929 21.6451 11.6979 21.2342C11.203 20.8233 10.9555 20.3137 10.9555 19.7053V13.2632C10.9555 12.0821 11.4608 11.0714 12.4713 10.2311C13.4818 9.39075 14.695 8.96987 16.1111 8.96843H42.2755L40.0844 7.14317C39.5689 6.7137 39.3214 6.21264 39.342 5.64001C39.3626 5.06738 39.6101 4.56633 40.0844 4.13685C40.6 3.70738 41.2118 3.48405 41.9198 3.46688C42.6278 3.4497 43.2405 3.65513 43.7577 4.08317L50.3955 9.61265C50.6533 9.82738 50.8363 10.06 50.9446 10.3105C51.0529 10.5611 51.1061 10.8295 51.1044 11.1158C51.1027 11.4021 51.0494 11.6705 50.9446 11.9211C50.8398 12.1716 50.6567 12.4042 50.3955 12.619L43.7577 18.1484C43.2422 18.5779 42.6304 18.7841 41.9224 18.7669C41.2143 18.7497 40.6017 18.5257 40.0844 18.0948C39.6118 17.6653 39.3644 17.1642 39.342 16.5916C39.3197 16.019 39.5671 15.5179 40.0844 15.0884L42.2755 13.2632Z" fill="#CD7B38"/>
</svg>
